<svg width="24" height="24" viewBox="0 0 24 24" fill="none" xmlns="http://www.w3.org/2000/svg" aria-labelledby="apple-title">
  <title id="apple-title">Apple</title>
  <path fill="#111827" d="M16.46 12.54c-.02-2.26 1.85-3.36 1.94-3.41-1.06-1.55-2.7-1.76-3.27-1.78-1.38-.15-2.72.83-3.42.83-.72 0-1.8-.81-2.97-.79-1.5.02-2.91.9-3.68 2.28-1.59 2.75-.4 6.8 1.12 9.02.76 1.09 1.64 2.31 2.81 2.27 1.14-.05 1.57-.73 2.95-.73 1.37 0 1.77.73 2.97.7 1.23-.02 2.01-1.09 2.74-2.19.88-1.25 1.23-2.49 1.24-2.56-.03-.01-2.4-.92-2.43-3.64Z"/>
  <path fill="#111827" d="M14.23 5.88c.62-.78 1.05-1.84.93-2.92-.9.04-2.03.62-2.67 1.37-.57.66-1.09 1.76-.95 2.79 1.01.08 2.04-.51 2.69-1.24Z"/>
</svg>
